<svg width="24" height="24" viewBox="0 0 24 24" fill="none" xmlns="http://www.w3.org/2000/svg">
<circle cx="12" cy="12" r="12" fill="#FBBB87"/>
<path d="M13.36 14.64C13.36 14.704 12.976 14.736 12.208 14.736C11.4507 14.736 11.072 14.7093 11.072 14.656L10.752 6.768C10.752 6.68267 11.2373 6.64 12.208 6.64C13.1893 6.64 13.68 6.67733 13.68 6.752L13.36 14.64ZM10.72 15.6C10.72 15.5253 11.2107 15.488 12.192 15.488C13.184 15.488 13.68 15.52 13.68 15.584V17.888C13.68 17.9947 13.184 18.048 12.192 18.048C11.2107 18.048 10.72 18.016 10.72 17.952V15.6Z" fill="#FF7F11"/>
</svg>
