<svg width="27" height="28" viewBox="0 0 27 28" fill="none" xmlns="http://www.w3.org/2000/svg">
<path d="M24.1939 2.98739C24.1376 2.9851 24.0812 2.98472 24.0249 2.98631H21.9013V1.16135C21.9014 0.43136 21.2046 0 20.4746 0H18.5169C17.787 0 17.2561 0.43136 17.2561 1.16135V2.98624H9.29268V1.16135C9.29268 0.43136 8.7618 0 8.03181 0H6.07411C5.34419 0 4.64736 0.43136 4.64736 1.16135V2.98624H2.52384C1.16828 2.94846 0.038753 4.01676 0.000964534 5.37225C-0.000623218 5.42852 -0.000242145 5.48492 0.00204422 5.54119V24.7196C0.00204422 26.1796 1.06381 27.54 2.52377 27.54H24.025C25.4849 27.54 26.5467 26.1796 26.5467 24.7196V5.54119C26.6022 4.18627 25.5488 3.04289 24.1939 2.98739ZM18.5169 1.32723H20.5742V4.97709H18.5169V1.32723ZM6.07418 1.32723H7.96551V4.97709H6.07418V1.32723ZM25.2195 24.7196C25.2195 25.4496 24.755 26.2128 24.025 26.2128H2.52384C1.79385 26.2128 1.32934 25.4496 1.32934 24.7196V10.6179H25.2195V24.7196ZM25.2195 5.54119V9.29063H1.32928V5.54119C1.27307 4.9207 1.73053 4.3721 2.35103 4.31589C2.40844 4.31068 2.46623 4.30992 2.52377 4.31354H4.64736V5.04353C4.64736 5.77351 5.34413 6.30439 6.07411 6.30439H8.03181C8.70959 6.323 9.27407 5.78856 9.29268 5.11078C9.29331 5.08836 9.29331 5.06594 9.29268 5.04353V4.31348H17.2561V5.04346C17.2375 5.72124 17.7719 6.28572 18.4497 6.30433C18.4721 6.30496 18.4945 6.30496 18.5169 6.30433H20.4746C21.2046 6.30433 21.9014 5.77345 21.9014 5.04346V4.31348H24.025C24.6468 4.27429 25.1826 4.74662 25.2218 5.36844C25.2254 5.42598 25.2247 5.48378 25.2195 5.54119Z" fill="white"/>
<path d="M9.5913 19.6762L8.99405 22.9943C8.97043 23.1366 8.9938 23.2828 9.06068 23.4107C9.23056 23.7354 9.63157 23.8609 9.95629 23.6911L12.9425 22.1316L15.9288 23.6911L16.2274 23.7574C16.3714 23.76 16.5119 23.7131 16.6255 23.6247C16.8239 23.4798 16.926 23.2373 16.891 22.9942L16.2938 19.6761L18.716 17.3535C18.8893 17.1662 18.9522 16.902 18.8819 16.6567C18.7925 16.43 18.5912 16.2665 18.351 16.2254L15.0329 15.7277L13.5398 12.7082C13.4747 12.5738 13.3662 12.4653 13.2318 12.4002C12.902 12.2405 12.5051 12.3784 12.3453 12.7082L10.8522 15.7277L7.53408 16.2254C7.29389 16.2664 7.09256 16.43 7.0032 16.6567C6.9329 16.902 6.99584 17.1662 7.16909 17.3535L9.5913 19.6762ZM11.4163 16.9886C11.6246 16.9574 11.8012 16.8187 11.8808 16.6236L12.9425 14.5L14.0043 16.6236C14.0839 16.8187 14.2604 16.9574 14.4688 16.9886L16.8247 17.3204L15.1324 18.9462C14.9748 19.1023 14.9009 19.324 14.9333 19.5435L15.3315 21.8993L13.2411 20.7712L12.9425 20.7048L12.6438 20.7712L10.5535 21.8993L10.9516 19.5435C10.9841 19.324 10.9102 19.1023 10.7525 18.9462L9.06029 17.3204L11.4163 16.9886Z" fill="white"/>
</svg>
