<svg width="27" height="28" viewBox="0 0 27 28" fill="none" xmlns="http://www.w3.org/2000/svg">
<path fill-rule="evenodd" clip-rule="evenodd" d="M5.61667 4.71071H7.79086C7.89095 4.71071 7.97203 4.62956 7.97203 4.52954V0.181165C7.97203 0.0810804 7.89095 0 7.79086 0H5.61667C5.51659 0 5.4355 0.0811498 5.4355 0.181165V4.52954C5.4355 4.62963 5.51659 4.71071 5.61667 4.71071ZM25.1481 3.26123H22.4666V4.42077C22.4666 5.10929 21.9593 5.79775 21.2708 5.79775H19.1329C18.3951 5.74545 17.8082 5.15854 17.7559 4.42077V3.26123H9.05915V4.42077C9.00686 5.15854 8.41994 5.74545 7.68217 5.79775H5.54419C4.85567 5.79775 4.34838 5.10922 4.34838 4.42077V3.26123H1.6669C0.740474 3.281 -0.000207989 4.03777 4.38112e-08 4.9644V9.42147H26.8149V4.9644C26.8152 4.03777 26.0745 3.281 25.1481 3.26123ZM21.1983 4.71071H19.0241C18.9241 4.71071 18.843 4.62963 18.843 4.52954V0.181165C18.843 0.0811498 18.9241 0 19.0241 0H21.1983C21.2983 0 21.3795 0.0810804 21.3795 0.181165V4.52954C21.3795 4.62956 21.2984 4.71071 21.1983 4.71071ZM10.6898 20.22L10.1825 23.1551L12.7915 21.7781L13.0451 21.7056L13.2988 21.7781L15.9078 23.1551L15.4005 20.22C15.3811 20.0496 15.4336 19.8789 15.5454 19.7489L17.6834 17.7196L14.7483 17.2848C14.5767 17.2574 14.4286 17.1497 14.3497 16.9949L13.0452 14.3496L11.7407 16.9949C11.6618 17.1497 11.5137 17.2574 11.3421 17.2848L8.40697 17.7196L10.545 19.7489C10.6566 19.8788 10.7091 20.0495 10.6898 20.22ZM1.6669 27.5397C0.760241 27.5399 0.0196979 26.8154 4.38112e-08 25.909V10.5085H26.815V25.909C26.7952 26.8154 26.0547 27.5399 25.1481 27.5397H1.6669ZM7.17482 16.8137C6.96972 16.8349 6.79785 16.9781 6.74001 17.1761C6.67425 17.3699 6.73141 17.5842 6.88497 17.7196L9.56644 20.3286L8.91419 24.061C8.88909 24.257 8.97232 24.4512 9.13163 24.5683C9.29817 24.7007 9.52968 24.7152 9.7114 24.6045L13.0451 22.8651L16.3789 24.6045C16.4513 24.6597 16.5419 24.6855 16.6325 24.6769C16.7497 24.6745 16.8634 24.6366 16.9586 24.5683C17.1179 24.4513 17.2012 24.257 17.1761 24.061L16.5238 20.3286L19.2053 17.7196C19.3589 17.5842 19.416 17.3699 19.3503 17.1761C19.2925 16.9782 19.1205 16.8349 18.9154 16.8137L15.1831 16.234L13.5162 12.864C13.4684 12.7809 13.3994 12.7119 13.3163 12.6641C13.0562 12.5143 12.7238 12.6038 12.574 12.864L10.9071 16.234L7.17482 16.8137Z" fill="#FF7F11"/>
</svg>
