<svg width="30" height="29" viewBox="0 0 30 29" fill="none" xmlns="http://www.w3.org/2000/svg">
<path fill-rule="evenodd" clip-rule="evenodd" d="M25.9569 9.15893L29.7254 12.9274C29.9085 13.1105 30 13.3505 30 13.5904C30 13.8304 29.9085 14.0704 29.7253 14.2535C29.5425 14.4363 29.3023 14.5283 29.0626 14.5283C28.823 14.5283 28.5827 14.4363 28.3999 14.2535L28.3996 14.2532L27.6564 13.5099V25.428C27.6564 26.9166 26.4496 28.1234 24.961 28.1234H20.2735C20.2666 28.1234 20.2597 28.1233 20.2529 28.123H18.7586L18.75 28.1231H11.25L11.2415 28.123H9.74709C9.74026 28.1233 9.7334 28.1234 9.72651 28.1234H5.03896C3.55038 28.1234 2.34363 26.9166 2.34363 25.428V13.51L1.60042 14.2532C1.58821 14.2654 1.57575 14.2772 1.56306 14.2886C1.19539 14.6193 0.628199 14.6076 0.274661 14.2535C0.0915312 14.0704 -2.24402e-05 13.8304 2.2622e-09 13.5904C-2.24379e-05 13.3505 0.0915157 13.1105 0.274615 12.9274L3.13294 10.0691L11.9338 1.26783C12.7776 0.424259 13.8853 0.00164941 14.9935 4.86934e-06C15.128 -0.000195417 15.2624 0.00580191 15.3964 0.0179968C16.3712 0.106701 17.3215 0.523314 18.0662 1.26783L25.9569 9.15893ZM10.3125 26.248H10.3125V18.8652C10.3125 17.425 11.3571 16.2242 12.7284 15.9806C11.3554 16.2235 10.3125 17.4227 10.3125 18.8655V26.248ZM17.2806 15.9823C18.6475 16.2295 19.6875 17.4282 19.6875 18.8652V26.248H19.6875V18.8655C19.6875 17.4259 18.6492 16.2288 17.2806 15.9823ZM12.1875 18.8652V26.248H17.8125V18.8652C17.8125 18.2837 17.3394 17.8105 16.7578 17.8105H13.2422C12.6606 17.8105 12.1875 18.2837 12.1875 18.8652Z" fill="#FF7F11"/>
</svg>
