<svg width="30" height="24" viewBox="0 0 30 24" fill="none" xmlns="http://www.w3.org/2000/svg">
<path fill-rule="evenodd" clip-rule="evenodd" d="M30 0.517241C30 0.231207 29.7683 0 29.4828 0H24.3103H5.68965H0.517241C0.231724 0 0 0.231207 0 0.517241V6.2069V11.8966V17.5862V23.2759C0 23.5619 0.231724 23.7931 0.517241 23.7931H5.68965H24.3103H29.4828C29.7683 23.7931 30 23.5619 30 23.2759V17.5862V11.8966V6.2069V0.517241ZM18.8984 11.46C18.9932 11.5205 19.0643 11.609 19.1035 11.711C19.0643 11.6091 18.9934 11.5205 18.899 11.46L13.2093 7.83931C13.1366 7.79344 13.0553 7.76705 12.9726 7.76041C13.0552 7.76707 13.1364 7.79346 13.2088 7.83931L18.8984 11.46ZM13.4483 9.21776L17.6571 11.8965L13.4483 14.5753V9.21776ZM1.03448 11.3793H5.17241V6.72414H1.03448V11.3793ZM5.17241 12.4138H1.03448V17.069H5.17241V12.4138ZM24.8276 11.3793H28.9655V6.72414H24.8276V11.3793ZM28.9655 12.4138H24.8276V17.069H28.9655V12.4138ZM28.9655 5.68966V1.03448H24.8276V5.68966H28.9655ZM5.17241 1.03448H1.03448V5.68966H5.17241V1.03448ZM1.03448 18.1034V22.7586H5.17241V18.1034H1.03448ZM24.8276 22.7586H28.9655V18.1034H24.8276V22.7586Z" fill="#FF7F11"/>
</svg>
