<svg width="30" height="24" viewBox="0 0 30 24" fill="none" xmlns="http://www.w3.org/2000/svg">
<path d="M18.8984 11.4601L13.2088 7.83937C13.0495 7.73851 12.8478 7.73178 12.6817 7.8223C12.5167 7.91333 12.4138 8.08713 12.4138 8.27592V15.5173C12.4138 15.7061 12.5167 15.8799 12.6822 15.9709C12.7598 16.0133 12.8452 16.0345 12.931 16.0345C13.0278 16.0345 13.1245 16.0071 13.2088 15.9539L18.8984 12.3332C19.0474 12.238 19.1379 12.0735 19.1379 11.8966C19.1379 11.7197 19.0474 11.5552 18.8984 11.4601ZM13.4483 14.5754V9.21782L17.6571 11.8966L13.4483 14.5754Z" fill="white"/>
<path d="M29.4828 0H24.3103H5.68965H0.517241C0.231724 0 0 0.231207 0 0.517241V6.2069V11.8966V17.5862V23.2759C0 23.5619 0.231724 23.7931 0.517241 23.7931H5.68965H24.3103H29.4828C29.7683 23.7931 30 23.5619 30 23.2759V17.5862V11.8966V6.2069V0.517241C30 0.231207 29.7683 0 29.4828 0ZM5.17241 11.3793H1.03448V6.72414H5.17241V11.3793ZM1.03448 12.4138H5.17241V17.069H1.03448V12.4138ZM6.2069 17.5862V11.8966V6.2069V1.03448H23.7931V6.2069V11.8966V17.5862V22.7586H6.2069V17.5862ZM28.9655 11.3793H24.8276V6.72414H28.9655V11.3793ZM24.8276 12.4138H28.9655V17.069H24.8276V12.4138ZM28.9655 1.03448V5.68966H24.8276V1.03448H28.9655ZM1.03448 1.03448H5.17241V5.68966H1.03448V1.03448ZM1.03448 22.7586V18.1034H5.17241V22.7586H1.03448ZM28.9655 22.7586H24.8276V18.1034H28.9655V22.7586Z" fill="white"/>
</svg>
